<svg xmlns="http://www.w3.org/2000/svg" width="1925.073" height="646.298" viewBox="0 0 1925.073 646.298"><defs><style>.a{fill:#e5e5ff;}</style></defs><path class="a" d="M0,2835.205s166.669-151.1,311.36-161.175,65.019,138.281,245.425,161.175,215.2-5.495,399.273-62.272,220.7-182.237,358.979-205.131,115.386,121.8,271.066,106.229,157.387-198.3,334.13-164.412c5.212,1-.017,3.91,0,6.945.048,5.294-.213,12.631,0,18.68.75,21.1-.479,48.377.24,76.637,1.63,5.108.359,10.989,0,16.285-.369,5.468.024,10.351,0,16.285-.077,18.918.727,38.54,0,59.633-1.992,57.834.7,119.06-.24,171,0,110.645,4.84,276.655,4.84,276.655H0V2835.205Z" transform="translate(0 -2505.438)"/></svg>